<?xml version="1.0" encoding="UTF-8" standalone="no"?>
<svg viewBox="0 0 50 50"
 xmlns="http://www.w3.org/2000/svg" xmlns:xlink="http://www.w3.org/1999/xlink" version="1.2" baseProfile="tiny">
<title>Qt SVG Document</title>
<desc>Generated with Qt</desc>
<defs>
</defs>
<g fill="none" stroke="black" stroke-width="1" fill-rule="evenodd" stroke-linecap="square" stroke-linejoin="bevel" >

<g fill="#050505" fill-opacity="1" stroke="none" transform="matrix(2.27273,0,0,2.27273,0,0)"
font-family="JetBrains Mono" font-size="10" font-weight="400" font-style="normal" 
opacity="0.00100002" >
<rect x="0" y="0" width="22" height="22"/>
</g>

<g fill="#2b4254" fill-opacity="1" stroke="none" transform="matrix(2.27273,0,0,2.27273,0,0)"
font-family="JetBrains Mono" font-size="10" font-weight="400" font-style="normal" 
opacity="0.0001" >
<path vector-effect="none" fill-rule="nonzero" d="M11,1 C5.47726,1 1,5.47716 1,11 C1,16.5228 5.47726,21 11,21 C16.5228,21 21,16.5228 21,11 C21,5.47716 16.5228,1 11,1 M11,2.25 C15.8324,2.25 19.75,6.1675 19.75,11 C19.75,15.8325 15.8324,19.75 11,19.75 C6.16756,19.75 2.25,15.8325 2.25,11 C2.25,6.1675 6.16756,2.25 11,2.25 M11,2.25"/>
</g>

<g fill="#ffffff" fill-opacity="1" stroke="none" transform="matrix(2.27273,0,0,2.27273,0,0)"
font-family="JetBrains Mono" font-size="10" font-weight="400" font-style="normal" 
opacity="0.0001" >
<path vector-effect="none" fill-rule="evenodd" d="M2,11 C2,6.02943 6.02943,2 11,2 L11,2 C15.9706,2 20,6.02943 20,11 L20,11 C20,15.9706 15.9706,20 11,20 L11,20 C6.02943,20 2,15.9706 2,11 L2,11"/>
</g>

<g fill="#ffffff" fill-opacity="1" stroke="none" transform="matrix(2.27273,0,0,2.27273,0,0)"
font-family="JetBrains Mono" font-size="10" font-weight="400" font-style="normal" 
>
<path vector-effect="none" fill-rule="nonzero" d="M7.14286,15.5 C6.97838,15.5 6.81389,15.4372 6.68834,15.3117 C6.43722,15.0606 6.43722,14.6537 6.68834,14.4026 L14.4026,6.68834 C14.6538,6.43723 15.0606,6.43723 15.3117,6.68834 C15.5628,6.93946 15.5628,7.34627 15.3117,7.59738 L7.59738,15.3117 C7.47182,15.4372 7.30734,15.5 7.14286,15.5 "/>
</g>

<g fill="#ffffff" fill-opacity="1" stroke="none" transform="matrix(2.27273,0,0,2.27273,0,0)"
font-family="JetBrains Mono" font-size="10" font-weight="400" font-style="normal" 
>
<path vector-effect="none" fill-rule="nonzero" d="M14.8572,15.5 C14.6927,15.5 14.5282,15.4372 14.4026,15.3117 L6.68834,7.59738 C6.43722,7.34627 6.43722,6.93946 6.68834,6.68834 C6.93945,6.43723 7.34626,6.43723 7.59738,6.68834 L15.3117,14.4026 C15.5628,14.6537 15.5628,15.0606 15.3117,15.3117 C15.1861,15.4372 15.0216,15.5 14.8572,15.5 "/>
</g>

<g fill="none" stroke="#000000" stroke-opacity="1" stroke-width="1" stroke-linecap="square" stroke-linejoin="bevel" transform="matrix(1,0,0,1,0,0)"
font-family="JetBrains Mono" font-size="10" font-weight="400" font-style="normal" 
>
</g>
</g>
</svg>
